<?xml version="1.0"?>
<svg xmlns="http://www.w3.org/2000/svg" xmlns:xlink="http://www.w3.org/1999/xlink" xmlns:svgjs="http://svgjs.com/svgjs" version="1.1" width="512" height="512" x="0" y="0" viewBox="0 0 64 64" style="enable-background:new 0 0 512 512" xml:space="preserve" class=""><g><g xmlns="http://www.w3.org/2000/svg" id="Blue"><path d="m61 32a28.983 28.983 0 1 1 -15.862-25.86 29.878 29.878 0 0 1 15.862 25.86z" fill="#e1195f" data-original="#7cb8eb" style=""/><path d="m45.138 6.14c-.489-.256-1.255-.627-2.243-1.023a6.285 6.285 0 0 0 .248 8.8 5.268 5.268 0 0 1 1.857 4.083c-.033.322-.161 1.585-1 2-2.092 1.035-4.99-4.987-10-5a8.247 8.247 0 0 0 -5 2c-2.271 1.719-4.905 5.229-4 8 .652 2 2.544 1.775 7 5 3.557 2.574 5.335 3.861 6 6 .982 3.16-1.325 4.883-2 11-.481 4.363-.656 5.372 0 6 1.324 1.267 3.618-.254 7 0a11.863 11.863 0 0 1 6.11 2.41 28.955 28.955 0 0 0 11.89-23.41 29.878 29.878 0 0 0 -15.862-25.86z" fill="#fbfbfb" data-original="#cdeef6" style="" class=""/><path d="m14 30c-.936-1.333-3.289-.449-6-2a9.341 9.341 0 0 1 -3.754-4.42 29.087 29.087 0 0 0 .013 16.887 10.526 10.526 0 0 0 6.741-2.467c2.447-2.182 4.255-6.214 3-8z" fill="#fbfbfb" data-original="#cdeef6" style="" class=""/><path d="m32 61a29.2 29.2 0 0 0 3.845-.262c-.285-2.184-1.065-3.218-1.845-3.738-1.979-1.319-4.136.505-7-1-2.2-1.156-1.654-2.614-4-4-2.162-1.277-5.644-1.821-8 0a5.684 5.684 0 0 0 -1.682 2.174 28.88 28.88 0 0 0 18.682 6.826z" fill="#fbfbfb" data-original="#cdeef6" style="" class=""/><path d="m22 44c-.624-.459-2.084-1.533-2-3 .095-1.66 2.12-3.056 4-3a4.165 4.165 0 0 1 4 4 3.455 3.455 0 0 1 -2 3c-1.684.7-3.329-.507-4-1z" fill="#fbfbfb" data-original="#cdeef6" style="" class=""/><g fill="#4f83d1"><path d="m10.937 22.347-1.875-.694a23.754 23.754 0 0 1 5.219-8.348 25.072 25.072 0 0 1 15.626-7.305l.186 2a23.061 23.061 0 0 0 -14.374 6.7 21.8 21.8 0 0 0 -4.782 7.647z" fill="#f71962" data-original="#4f83d1" style="" class=""/><path d="m32 6h2v2h-2z" fill="#f71962" data-original="#4f83d1" style="" class=""/><path d="m50 46h2v2h-2z" fill="#f71962" data-original="#4f83d1" style="" class=""/><path d="m52 41h2v2h-2z" fill="#f71962" data-original="#4f83d1" style="" class=""/><path d="m45.6 5.254a30 30 0 1 0 16.4 26.746 31.017 31.017 0 0 0 -16.4-26.746zm-41.6 26.746a28.061 28.061 0 0 1 .6-5.785 9.268 9.268 0 0 0 2.9 2.653 10.2 10.2 0 0 0 4.017 1.2c.921.123 1.453.207 1.661.5.781 1.112-.46 4.549-2.848 6.679a9.141 9.141 0 0 1 -5.33 2.163 27.925 27.925 0 0 1 -1-7.41zm28 28a27.853 27.853 0 0 1 -17.4-6.086 4.417 4.417 0 0 1 1.009-1.123c1.921-1.484 4.916-1.089 6.88.07a4.517 4.517 0 0 1 1.719 1.76 5.57 5.57 0 0 0 2.325 2.264 7.455 7.455 0 0 0 4.527.668 3.425 3.425 0 0 1 2.383.279 3.325 3.325 0 0 1 1.218 2.038c-.875.083-1.761.13-2.661.13zm4.652-.394a5.37 5.37 0 0 0 -2.1-3.438 5.283 5.283 0 0 0 -3.675-.607 5.563 5.563 0 0 1 -3.415-.446 3.654 3.654 0 0 1 -1.562-1.563 6.48 6.48 0 0 0 -2.391-2.413c-2.464-1.454-6.369-2.054-9.12.069a6.354 6.354 0 0 0 -1.316 1.4 28.074 28.074 0 0 1 -7.461-11.26 10.93 10.93 0 0 0 6.054-2.606c2.49-2.221 4.895-6.842 3.152-9.321-.721-1.028-1.9-1.185-3.033-1.336a8.41 8.41 0 0 1 -3.285-.953 8.1 8.1 0 0 1 -3.17-3.642 28.048 28.048 0 0 1 26.67-19.49 28.409 28.409 0 0 1 9.279 1.579 7.327 7.327 0 0 0 1.155 9.046 4.354 4.354 0 0 1 1.571 3.275c-.1 1.005-.413 1.186-.448 1.2-.35.175-1.531-.863-2.315-1.542-1.731-1.5-4.1-3.554-7.239-3.562h-.019a9.246 9.246 0 0 0 -5.584 2.204c-2.359 1.786-5.463 5.685-4.346 9.109.5 1.539 1.6 2.112 3.108 2.905a31.7 31.7 0 0 1 4.256 2.595c3.372 2.44 5.065 3.666 5.631 5.486.439 1.414.077 2.471-.524 4.222a27.118 27.118 0 0 0 -1.515 6.372l-.108.968c-.434 3.9-.551 4.943.411 5.864 1.123 1.071 2.57.821 4.105.554a13.753 13.753 0 0 1 3.507-.275 10.208 10.208 0 0 1 4.375 1.431 27.819 27.819 0 0 1 -10.648 4.175zm12.42-5.435a12.507 12.507 0 0 0 -6-2.168 15.574 15.574 0 0 0 -4 .3c-1.269.221-2 .329-2.38-.03-.247-.236-.081-1.726.2-4.2l.108-.972a25.449 25.449 0 0 1 1.418-5.941c.657-1.915 1.176-3.427.543-5.465-.764-2.457-2.755-3.9-6.369-6.514a33.793 33.793 0 0 0 -4.5-2.745c-1.463-.767-1.9-1.02-2.136-1.755-.667-2.044 1.377-5.169 3.654-6.892a7.34 7.34 0 0 1 4.38-1.8h.01c2.4.006 4.275 1.636 5.935 3.073 1.532 1.329 2.979 2.583 4.511 1.823a3.173 3.173 0 0 0 1.554-2.785 6.167 6.167 0 0 0 -2.143-4.887 5.3 5.3 0 0 1 -.639-6.884c.6.263 1.1.506 1.462.694a28.969 28.969 0 0 1 15.32 24.977 27.964 27.964 0 0 1 -10.928 22.171z" fill="#f71962" data-original="#4f83d1" style="" class=""/><path d="m24.029 37c-2.273-.068-4.893 1.6-5.027 3.943-.115 2.008 1.716 3.355 2.405 3.862a6.173 6.173 0 0 0 3.513 1.411 3.758 3.758 0 0 0 1.464-.3 4.426 4.426 0 0 0 2.616-3.878 4.636 4.636 0 0 0 -1.32-3.338 5.272 5.272 0 0 0 -3.651-1.7zm1.585 7.077c-1.162.487-2.464-.473-3.02-.882-.493-.363-1.647-1.211-1.594-2.137.06-1.04 1.592-2.1 2.973-2.057a3.306 3.306 0 0 1 2.248 1.069 2.666 2.666 0 0 1 .779 1.892 2.468 2.468 0 0 1 -1.386 2.115z" fill="#f71962" data-original="#4f83d1" style="" class=""/><path d="m29.907 6a25.072 25.072 0 0 0 -15.626 7.3 23.754 23.754 0 0 0 -5.219 8.348l1.875.694a21.8 21.8 0 0 1 4.782-7.642 23.061 23.061 0 0 1 14.374-6.7z" fill="#f71962" data-original="#4f83d1" style="" class=""/><path d="m32 6h2v2h-2z" fill="#f71962" data-original="#4f83d1" style="" class=""/><path d="m50 46h2v2h-2z" fill="#f71962" data-original="#4f83d1" style="" class=""/><path d="m52 41h2v2h-2z" fill="#f71962" data-original="#4f83d1" style="" class=""/></g></g></g></svg>
