<svg xmlns="http://www.w3.org/2000/svg" xmlns:xlink="http://www.w3.org/1999/xlink" version="1.1" x="0px" y="0px" viewBox="0 0 100 125" enable-background="new 0 0 100 100" xml:space="preserve"><ellipse fill="#000000" cx="40.881" cy="47.188" rx="1.875" ry="2.812"/><ellipse fill="#000000" cx="59.631" cy="47.188" rx="1.875" ry="2.812"/><path fill="#000000" d="M50.256,60.312c3.618,0,6.562-2.944,6.562-6.562c0-0.518-0.419-0.938-0.938-0.938s-0.938,0.419-0.938,0.938  c0,2.585-2.102,4.688-4.688,4.688s-4.688-2.102-4.688-4.688c0-0.518-0.419-0.938-0.938-0.938s-0.938,0.419-0.938,0.938  C43.694,57.368,46.638,60.312,50.256,60.312z"/><path fill="#000000" d="M76.049,19.908C76.199,19.947,76.345,20,76.506,20c1.035,0,1.875-0.84,1.875-1.875  c0-1.036-0.84-1.875-1.875-1.875s-1.875,0.839-1.875,1.875c0,0.161,0.053,0.308,0.091,0.458l-3.896,3.896  c-0.007,0.007-0.015,0.007-0.021,0.015c-0.008,0.007-0.009,0.015-0.015,0.021l-3.465,3.465c-4.506-4.131-10.488-6.676-17.069-6.676  c-13.958,0-25.312,11.354-25.312,25.312c0,6.581,2.545,12.563,6.674,17.069l-7.337,7.339c-0.366,0.366-0.366,0.96,0,1.326  c0.183,0.183,0.423,0.274,0.663,0.274s0.48-0.092,0.663-0.274l3.468-3.468c5.53,5.211,12.645,8.159,20.244,8.384v5.671h-2.812  c-1.551,0-2.812,1.262-2.812,2.812s1.262,2.812,2.812,2.812h7.5c1.551,0,2.812-1.262,2.812-2.812s-1.262-2.812-2.812-2.812h-2.812  v-5.673c16.623-0.501,30-14.148,30-30.89c0-7.95-3.003-15.423-8.43-21.182L76.049,19.908z M54.944,83.75  c0,0.517-0.421,0.938-0.938,0.938h-7.5c-0.516,0-0.938-0.421-0.938-0.938s0.421-0.938,0.938-0.938h7.5  C54.522,82.812,54.944,83.233,54.944,83.75z M50.256,21.179c12.923,0,23.438,10.514,23.438,23.438S63.18,68.054,50.256,68.054  S26.819,57.54,26.819,44.617S37.333,21.179,50.256,21.179z M79.319,44.375c0,16.025-13.037,29.062-29.062,29.062  c-7.451,0-14.453-2.809-19.856-7.881l2.532-2.534c4.534,4.27,10.62,6.907,17.324,6.907c13.958,0,25.312-11.354,25.312-25.312  c0-6.704-2.637-12.79-6.907-17.322l2.776-2.776C76.512,29.924,79.319,36.924,79.319,44.375z"/><path fill="#000000" d="M50.256,26.562c1.353,0,2.699,0.152,3.997,0.45c0.072,0.017,0.141,0.024,0.21,0.024  c0.429,0,0.813-0.293,0.914-0.727c0.115-0.505-0.2-1.009-0.703-1.124c-1.438-0.33-2.924-0.498-4.418-0.498  c-0.518,0-0.938,0.419-0.938,0.938S49.738,26.562,50.256,26.562z"/><path fill="#000000" d="M59.593,29.201c3.54,2.181,6.218,5.539,7.542,9.456c0.132,0.39,0.497,0.637,0.888,0.637  c0.099,0,0.202-0.017,0.3-0.05c0.491-0.167,0.754-0.697,0.588-1.188c-1.463-4.331-4.424-8.042-8.333-10.452  c-0.441-0.268-1.018-0.138-1.291,0.306C59.016,28.352,59.153,28.93,59.593,29.201z"/><text x="0" y="115" fill="#000000" font-size="5px" font-weight="bold" font-family="'Helvetica Neue', Helvetica, Arial-Unicode, Arial, Sans-serif">Created by Julien Deveaux</text><text x="0" y="120" fill="#000000" font-size="5px" font-weight="bold" font-family="'Helvetica Neue', Helvetica, Arial-Unicode, Arial, Sans-serif">from the Noun Project</text></svg>